<?xml version="1.0" encoding="UTF-8" standalone="no"?>
<!-- Uploaded to: SVG Repo, www.svgrepo.com, Generator: SVG Repo Mixer Tools -->

<svg
   height="800px"
   width="800px"
   version="1.1"
   id="Layer_1"
   viewBox="0 0 512 512"
   xml:space="preserve"
   sodipodi:docname="email-mail-svgrepo-com.svg"
   inkscape:version="1.4 (86a8ad7, 2024-10-11)"
   xmlns:inkscape="http://www.inkscape.org/namespaces/inkscape"
   xmlns:sodipodi="http://sodipodi.sourceforge.net/DTD/sodipodi-0.dtd"
   xmlns="http://www.w3.org/2000/svg"
   xmlns:svg="http://www.w3.org/2000/svg"><defs
   id="defs31"><rect
     x="292.51534"
     y="174.72393"
     width="131.53374"
     height="108.95706"
     id="rect60" /><inkscape:perspective
     sodipodi:type="inkscape:persp3d"
     inkscape:vp_x="0 : 256 : 1"
     inkscape:vp_y="0 : 1000 : 0"
     inkscape:vp_z="512 : 256 : 1"
     inkscape:persp3d-origin="256 : 170.66667 : 1"
     id="perspective57" /><rect
     x="292.51534"
     y="174.72393"
     width="43.190184"
     height="43.190184"
     id="rect32" /></defs><sodipodi:namedview
   id="namedview31"
   pagecolor="#505050"
   bordercolor="#eeeeee"
   borderopacity="1"
   inkscape:showpageshadow="0"
   inkscape:pageopacity="0"
   inkscape:pagecheckerboard="0"
   inkscape:deskcolor="#505050"
   inkscape:zoom="0.72036503"
   inkscape:cx="387.30364"
   inkscape:cy="425.47873"
   inkscape:window-width="1920"
   inkscape:window-height="1017"
   inkscape:window-x="1912"
   inkscape:window-y="-8"
   inkscape:window-maximized="1"
   inkscape:current-layer="Layer_1" />
<g
   transform="translate(7.5386503,7.9104294)"
   id="g31">
	<polygon
   style="fill:#63d3fd"
   points="213.333,348.867 110.933,251.587 110.933,41.667 358.4,41.667 358.4,251.587 281.6,348.867 "
   id="polygon1" />
	<polygon
   style="fill:#3db9f9"
   points="358.4,251.587 281.6,348.867 384,251.587 384,41.667 358.4,41.667 "
   id="polygon2" />
	<path
   style="fill:#ffe100"
   d="m 471.04,184.173 c -1.707,-0.853 -3.413,-1.707 -5.12,-2.56 1.707,0 3.413,0.854 5.12,2.56 M 452.267,178.2 c 1.707,0 4.267,0 5.973,0.853 -1.707,-0.853 -4.267,-0.853 -5.973,-0.853 m 7.68,0.853 c 1.707,0 2.56,0.853 4.267,0.853 -0.854,0.001 -2.561,0.001 -4.267,-0.853 m 11.093,5.12 L 384,75.8 409.6,178.2 h 21.333 c 16.213,0 29.867,15.36 29.867,34.133 v 256 c 0,18.773 -13.653,34.133 -29.867,34.133 h 21.333 c 18.773,0 34.133,-15.36 34.133,-34.133 v -256 c 10e-4,-11.946 -5.972,-22.186 -15.359,-28.16"
   id="path2" />
	<g
   id="g4">
		<path
   style="fill:#ffa800"
   d="m 68.267,178.2 h 42.667 v -74.24 l -61.44,80.213 C 54.613,179.907 61.44,178.2 68.267,178.2"
   id="path3" />
		<path
   style="fill:#ffa800"
   d="M 445.44,184.173 384,103.96 v 74.24 h 42.667 c 6.826,0 13.653,1.707 18.773,5.973"
   id="path4" />
	</g>
	<path
   style="fill:#fdcc00"
   d="M 319.147,41.667 309.76,32.28 C 292.693,16.92 270.507,7.533 247.467,7.533 v 0 c -23.893,0 -46.933,9.387 -64,26.453 l -8.533,7.68 h 144.213 z"
   id="path5" />
	<path
   style="fill:#ffe100"
   d="M 277.333,348.867 H 217.6 L 110.933,251.587 V 178.2 H 89.6 c -16.213,0 -29.867,15.36 -29.867,34.133 V 280.6 468.333 c 0,18.773 13.653,34.133 29.867,34.133 h 315.733 c 16.213,0 29.867,-15.36 29.867,-34.133 v -256 C 435.2,193.56 421.547,178.2 405.333,178.2 H 384 v 73.387 z"
   id="path6" />
	<path
   style="fill:#ffffff"
   d="M 59.733,468.333 V 280.6 212.333 C 59.733,193.56 73.386,178.2 89.6,178.2 H 68.267 c -18.773,0 -34.133,15.36 -34.133,34.133 V 280.6 468.333 c 0,18.773 15.36,34.133 34.133,34.133 H 89.6 C 73.387,502.467 59.733,487.107 59.733,468.333"
   id="path7" />
	<g
   id="g9">
		<path
   style="fill:#ffa800"
   d="m 426.667,178.2 h -21.333 c 16.213,0 29.867,15.36 29.867,34.133 v 256 c 0,18.773 -13.653,34.133 -29.867,34.133 h 21.333 c 18.773,0 34.133,-15.36 34.133,-34.133 v -256 C 460.8,193.56 445.44,178.2 426.667,178.2"
   id="path8" />
		<path
   style="fill:#ffa800"
   d="M 426.667,178.2 H 384 v 0 73.387 l 66.56,-63.147 c -5.973,-6.827 -14.507,-10.24 -23.893,-10.24"
   id="path9" />
	</g>
	<path
   style="fill:#fdcc00"
   d="M 281.6,348.867 H 213.333 L 45.227,493.08 c 5.973,5.973 13.653,9.387 23.04,9.387 h 358.4 c 9.387,0 17.067,-3.413 23.04,-9.387 z"
   id="path10" />
	<path
   d="M 426.667,511 H 68.267 C 44.373,511 25.6,492.227 25.6,468.333 V 348.867 c 0,-5.12 3.413,-8.533 8.533,-8.533 5.12,0 8.533,3.413 8.533,8.533 v 119.467 c 0,14.507 11.093,25.6 25.6,25.6 h 358.4 c 14.507,0 25.6,-11.093 25.6,-25.6 v -256 c 0,-14.507 -11.093,-25.6 -25.6,-25.6 h -34.133 v 64.853 c 0,2.56 -0.853,4.267 -2.56,5.973 l -102.4,97.28 c -1.707,1.707 -3.413,2.56 -5.973,2.56 h -68.267 c -2.56,0 -4.267,-0.853 -5.973,-2.56 l -102.4,-97.28 c -1.707,-1.707 -2.56,-4.267 -2.56,-5.973 V 186.734 H 68.267 c -14.507,0 -25.6,11.093 -25.6,25.6 V 280.6 c 0,5.12 -3.413,8.533 -8.533,8.533 -5.12,0 -8.534,-3.413 -8.534,-8.533 v -68.267 c 0,-23.893 18.773,-42.667 42.667,-42.667 h 42.667 c 5.12,0 8.533,3.413 8.533,8.533 v 69.12 l 97.28,93.013 h 61.44 l 97.28,-93.013 V 178.2 c 0,-5.12 3.413,-8.533 8.533,-8.533 h 42.667 c 23.893,0 42.667,18.773 42.667,42.667 v 256 C 469.333,492.227 450.56,511 426.667,511 Z"
   id="path11" />
	<path
   d="m 42.667,314.733 c 0,-5.12 -3.413,-8.533 -8.533,-8.533 -5.12,0 -8.533,3.413 -8.533,8.533 0,5.12 3.413,8.533 8.533,8.533 5.12,0 8.533,-3.413 8.533,-8.533"
   id="path12" />
	<path
   d="M 319.147,50.2 H 174.933 c -3.413,0 -6.827,-1.707 -7.68,-5.12 -1.707,-3.413 -0.853,-6.827 1.707,-9.387 l 7.68,-7.68 C 195.413,9.24 221.013,-1 247.467,-1 c 25.6,0 50.347,9.387 68.267,27.307 l 9.387,9.387 c 2.56,2.56 3.413,5.973 1.707,9.387 -0.855,3.412 -4.268,5.119 -7.681,5.119 z M 197.12,33.133 h 99.84 C 282.453,22.04 265.387,16.066 246.613,16.066 228.693,16.067 211.627,22.04 197.12,33.133 Z"
   id="path13" />
	<path
   d="m 281.6,357.4 h -68.267 c -2.56,0 -4.267,-0.853 -5.973,-2.56 l -102.4,-97.28 c -1.707,-1.707 -2.56,-4.267 -2.56,-5.973 V 41.667 c 0,-5.12 3.413,-8.533 8.533,-8.533 H 384 c 5.12,0 8.533,3.413 8.533,8.533 v 209.92 c 0,2.56 -0.853,4.267 -2.56,5.973 l -102.4,97.28 c -1.706,1.707 -3.413,2.56 -5.973,2.56 z m -64.853,-17.067 h 61.44 l 97.28,-93.013 V 50.2 h -256 v 197.12 z"
   id="path14" />
	<path
   d="M 307.2,92.867 H 187.733 c -5.12,0 -8.533,-3.413 -8.533,-8.533 0,-5.12 3.413,-8.533 8.533,-8.533 H 307.2 c 5.12,0 8.533,3.413 8.533,8.533 0,5.12 -3.413,8.533 -8.533,8.533 z"
   id="path15" />
	<path
   d="m 204.8,144.067 h -59.733 c -5.12,0 -8.533,-3.413 -8.533,-8.533 0,-5.12 3.413,-8.533 8.533,-8.533 H 204.8 c 5.12,0 8.533,3.413 8.533,8.533 0,5.12 -3.413,8.533 -8.533,8.533 z"
   id="path16" />
	<path
   d="M 349.867,144.067 H 238.933 c -5.12,0 -8.533,-3.413 -8.533,-8.533 0,-5.12 3.413,-8.533 8.533,-8.533 h 110.933 c 5.12,0 8.533,3.413 8.533,8.533 0,5.12 -3.412,8.533 -8.532,8.533 z"
   id="path17" />
	<path
   d="m 290.133,178.2 h -76.8 c -5.12,0 -8.533,-3.413 -8.533,-8.533 0,-5.12 3.413,-8.533 8.533,-8.533 h 76.8 c 5.12,0 8.533,3.413 8.533,8.533 10e-4,5.12 -3.413,8.533 -8.533,8.533 z"
   id="path18" />
	<path
   d="m 179.2,178.2 h -34.133 c -5.12,0 -8.533,-3.413 -8.533,-8.533 0,-5.12 3.413,-8.533 8.533,-8.533 H 179.2 c 5.12,0 8.533,3.413 8.533,8.533 0,5.12 -3.413,8.533 -8.533,8.533 z"
   id="path19" />
	<path
   d="m 349.867,178.2 h -25.6 c -5.12,0 -8.533,-3.413 -8.533,-8.533 0,-5.12 3.413,-8.533 8.533,-8.533 h 25.6 c 5.12,0 8.533,3.413 8.533,8.533 0,5.12 -3.413,8.533 -8.533,8.533 z"
   id="path20" />
	<path
   d="m 290.133,212.333 h -51.2 c -5.12,0 -8.533,-3.413 -8.533,-8.533 0,-5.12 3.413,-8.533 8.533,-8.533 h 51.2 c 5.12,0 8.533,3.413 8.533,8.533 10e-4,5.12 -3.413,8.533 -8.533,8.533 z"
   id="path21" />
	<path
   d="m 204.8,212.333 h -59.733 c -5.12,0 -8.533,-3.413 -8.533,-8.533 0,-5.12 3.413,-8.533 8.533,-8.533 H 204.8 c 5.12,0 8.533,3.413 8.533,8.533 0,5.12 -3.413,8.533 -8.533,8.533 z"
   id="path22" />
	<path
   d="M 247.467,246.467 H 204.8 c -5.12,0 -8.533,-3.413 -8.533,-8.533 0,-5.12 3.413,-8.533 8.533,-8.533 h 42.667 c 5.12,0 8.533,3.413 8.533,8.533 0,5.119 -3.413,8.533 -8.533,8.533 z"
   id="path23" />
	<path
   d="m 170.667,246.467 h -25.6 c -5.12,0 -8.533,-3.413 -8.533,-8.533 0,-5.12 3.413,-8.533 8.533,-8.533 h 25.6 c 5.12,0 8.533,3.413 8.533,8.533 0,5.119 -3.413,8.533 -8.533,8.533 z"
   id="path24" />
	<path
   d="m 307.2,280.6 c -2.56,0 -5.12,-0.853 -6.827,-3.413 l -25.6,-34.133 c -2.56,-3.413 -1.707,-9.387 1.707,-11.947 3.413,-2.56 9.387,-1.707 11.947,1.707 l 18.773,24.746 35.84,-50.347 c 2.56,-3.413 7.68,-5.12 11.947,-1.707 3.413,2.56 5.12,7.68 1.707,11.947 l -42.667,59.733 c -1.707,1.707 -4.267,3.414 -6.827,3.414 z"
   id="path25" />
	<path
   d="m 426.667,511 h -358.4 c -11.093,0 -21.333,-4.267 -29.013,-11.947 -1.707,-1.707 -2.56,-4.267 -2.56,-6.827 0,-2.56 0.853,-5.12 2.56,-5.973 L 207.36,342.04 c 1.707,-1.707 3.413,-1.707 5.973,-1.707 H 281.6 c 1.707,0 4.267,0.853 5.973,1.707 L 455.68,486.253 c 1.707,1.707 2.56,4.267 2.56,5.973 0,2.56 -0.853,5.12 -2.56,6.827 C 448,506.733 437.76,511 426.667,511 Z M 58.88,492.227 c 3.413,0.853 5.973,1.707 9.387,1.707 h 358.4 c 3.413,0 5.973,-0.853 9.387,-1.707 L 278.187,357.4 h -62.293 z"
   id="path26" />
	<path
   style="fill:#ffa800"
   d="M 110.933,251.587 V 178.2 H 68.267 c -9.387,0 -17.92,3.413 -23.893,9.387 z"
   id="path27" />
	<path
   d="m 110.933,260.12 c -2.56,0 -4.267,-0.853 -5.973,-2.56 L 38.4,194.413 c -1.707,-1.707 -2.56,-3.413 -2.56,-5.973 0,-2.56 0.853,-4.267 2.56,-5.973 7.68,-8.533 18.773,-12.8 29.867,-12.8 h 42.667 c 5.12,0 8.533,3.413 8.533,8.533 v 73.387 c 0,3.413 -1.707,6.827 -5.12,7.68 -0.854,0 -2.56,0.853 -3.414,0.853 z M 58.027,189.293 102.4,231.96 V 186.733 H 68.267 c -3.414,0 -6.827,0.854 -10.24,2.56 z"
   id="path28" />
	<path
   d="m 384,260.12 c -0.853,0 -2.56,0 -3.413,-0.853 -3.413,-1.707 -5.12,-4.267 -5.12,-7.68 V 178.2 c 0,-5.12 3.413,-8.533 8.533,-8.533 h 42.667 c 11.093,0 22.187,4.267 29.867,11.947 1.707,1.707 2.56,4.267 2.56,5.973 0,1.707 -0.853,4.267 -2.56,5.973 l -66.56,63.147 c -1.707,2.56 -3.414,3.413 -5.974,3.413 z m 8.533,-73.387 v 44.373 l 44.373,-42.667 c -3.413,-0.853 -6.827,-1.707 -10.24,-1.707 h -34.133 z"
   id="path29" />
	<path
   d="m 445.44,192.707 c -1.707,0 -3.413,-0.853 -5.12,-1.707 -3.413,-2.56 -8.533,-4.267 -13.653,-4.267 H 384 c -5.12,0 -8.533,-3.413 -8.533,-8.533 v -74.24 c 0,-3.413 2.56,-6.827 5.973,-7.68 3.413,-0.853 7.68,0 9.387,2.56 l 61.44,79.36 c 2.56,3.413 2.56,7.68 -0.853,11.093 -1.707,2.56 -3.414,3.414 -5.974,3.414 z m -52.907,-23.04 h 31.573 L 392.533,129.56 Z"
   id="path30" />
	<path
   d="m 49.493,192.707 c -2.56,0 -4.267,-0.853 -5.973,-2.56 -3.413,-3.413 -3.413,-8.533 -0.853,-11.093 l 61.44,-80.213 c 2.56,-2.56 5.973,-4.267 9.387,-2.56 3.413,0.853 5.973,4.267 5.973,7.68 v 74.24 c 0,5.12 -3.413,8.533 -8.533,8.533 H 68.267 c -5.12,0 -10.24,1.707 -14.507,4.267 -0.853,0.852 -2.56,1.706 -4.267,1.706 z m 21.334,-23.04 H 102.4 v -40.96 z"
   id="path31" />
</g>
<rect
   style="fill:#63d3fd;fill-opacity:1;stroke-width:0.636974"
   id="rect56"
   width="235.58281"
   height="197.88957"
   x="131.29817"
   y="59.680981"
   ry="0" /><rect
   style="fill:#63d3fd;fill-opacity:1;stroke-width:0.64"
   id="rect57"
   width="132.5546"
   height="57.796318"
   x="194.74846"
   y="236.83926" /><rect
   style="fill:#63d3fd;fill-opacity:1;stroke-width:0.64"
   id="rect58"
   width="52.14233"
   height="28.898159"
   x="141.97791"
   y="232.44171" /><rect
   style="fill:#63d3fd;fill-opacity:1;stroke-width:0.64"
   id="rect59"
   width="33.295704"
   height="42.719017"
   x="310.40427"
   y="240.76102" /><text
   xml:space="preserve"
   transform="scale(0.64)"
   id="text59"
   style="font-size:37.33333333px;text-align:start;writing-mode:lr-tb;direction:ltr;white-space:pre;shape-inside:url(#rect60);fill:#63d3fd;fill-opacity:1" /><text
   xml:space="preserve"
   style="font-style:normal;font-variant:normal;font-weight:normal;font-stretch:normal;font-size:27.3067px;font-family:'Comic Sans MS';-inkscape-font-specification:'Comic Sans MS, Normal';font-variant-ligatures:normal;font-variant-caps:normal;font-variant-numeric:normal;font-variant-east-asian:normal;text-align:start;writing-mode:lr-tb;direction:ltr;text-anchor:start;white-space:pre;inline-size:23.3812;fill:#010003;fill-opacity:1;stroke-width:0.639982;stroke-dasharray:none;paint-order:markers fill stroke"
   x="217.99263"
   y="121.24662"
   id="text61"
   transform="matrix(7.1630375,0,0,8.777732,-1429.6688,-806.60214)"><tspan
     x="217.99263"
     y="121.24662"
     id="tspan1">E</tspan></text><text
   xml:space="preserve"
   style="font-style:normal;font-variant:normal;font-weight:normal;font-stretch:normal;font-size:232.653px;font-family:'Comic Sans MS';-inkscape-font-specification:'Comic Sans MS, Normal';font-variant-ligatures:normal;font-variant-caps:normal;font-variant-numeric:normal;font-variant-east-asian:normal;text-align:start;writing-mode:lr-tb;direction:ltr;text-anchor:start;fill:#010003;fill-opacity:1;stroke-width:5.45281"
   x="272.95035"
   y="239.28563"
   id="text62"
   transform="scale(0.92789996,1.0777024)"><tspan
     sodipodi:role="line"
     id="tspan62"
     style="font-style:normal;font-variant:normal;font-weight:normal;font-stretch:normal;font-size:232.653px;font-family:'Comic Sans MS';-inkscape-font-specification:'Comic Sans MS, Normal';font-variant-ligatures:normal;font-variant-caps:normal;font-variant-numeric:normal;font-variant-east-asian:normal;stroke-width:5.45281"
     x="272.95035"
     y="239.28563">L</tspan></text></svg>
